# xmcd CD database file
#
# Track frame offsets:
#	150
#	11005
#	23398
#	35728
#	51840
#	69365
#	82760
#	100060
#	114430
#	128305
#	139680
#	152815
#	167148
#	178028
#	188573
#	206128
#	218933
#	234598
#	249808
#	265915
#	281410
#	297313
#	309923
#
# Disc length: 4303 seconds
#
# Revision: 0
# Processed by: cddbd v1.5.2PL0 Copyright (c) Steve Scherf et al.
# Submitted via: CDex 1.70beta2
#
DISCID=3110cd17
DTITLE=ChartBreakers - ChartBreakers CGC-534
DYEAR=1900
DGENRE=Country
TTITLE0=Jim Reeves - He'll Have To Go
TTITLE1=Johnny Cash - I Walk The Line
TTITLE2=Dolly Parton - Jolene
TTITLE3=Judds - Maybe Your Baby's Got The Blues
TTITLE4=Reba McEntire - New Fool At An Old Game
TTITLE5=Merle Haggard - Okie From Muskogee
TTITLE6=Dan Seals - I Will Be There
TTITLE7=Nitty Gritty Dirt Band - Oh What A Love
TTITLE8=Mickey Gilley and Charley McClain - Paradise Tonight
TTITLE9=Conway Twitty - Hello Darlin'
TTITLE10=Statler Brothers - I'll Go To My Grave Loving You
TTITLE11=Charley Pride - Kaw-Liga (Live)
TTITLE12=Johnny Lee - Pickin' Up Strangers
TTITLE13=Vern Gosdin - Right In The Wrong Direction
TTITLE14=Willie Nelson and Ray Charles - Seven Spanish Angels
TTITLE15=Larry Gatlin and The Gatlin Brothers - Take Me To Your Lovin' Place
TTITLE16=Ronnie Milsap - I Wouldn't Have Missed It For The World
TTITLE17=Conway Twitty - I'd Love To Lay You Down
TTITLE18=Dwight Yoakam - Please, Please Baby
TTITLE19=John Conlee - Rose Colored Glasses
TTITLE20=Oak Ridge Boys - Sail Away
TTITLE21=Emmylou Harris - I'm movin' On
TTITLE22=Merle Haggard - Let's Chase Each Other Around The Room
EXTD=YEAR: 1900
EXTT0=
EXTT1=
EXTT2=
EXTT3=
EXTT4=
EXTT5=
EXTT6=
EXTT7=
EXTT8=
EXTT9=
EXTT10=
EXTT11=
EXTT12=
EXTT13=
EXTT14=
EXTT15=
EXTT16=
EXTT17=
EXTT18=
EXTT19=
EXTT20=
EXTT21=
EXTT22=
PLAYORDER=
